/* XPM */
static char *_38c7590cf0247ec8bcb90c8595f7a1botCPuwagR9X0rPiY[] = {
/* columns rows colors chars-per-pixel */
"64 64 2 1 ",
"  c None",
". c white",
/* pixels */
"................        ........................................",
"................        ........................................",
"................        ........................................",
"................        ........................................",
"................        ........................................",
"................        ........................................",
"................        ........................................",
"................        ........................................",
"................        ........................................",
"................        ........................................",
"................        ........................................",
"................        ........................................",
"................        ........................................",
"................        ........................................",
"................        ........................................",
"................        ........................................",
"................        ........................................",
"................        ........................................",
"................        ........................................",
"................        ........................................",
"................        ........................................",
"................        ........................................",
"................        ........................................",
"................        ........................................",
"                                                                ",
"                                                                ",
"                                                                ",
"                                                                ",
"                                                                ",
"                                                                ",
"                                                                ",
"                                                                ",
"........................................        ................",
"........................................        ................",
"........................................        ................",
"........................................        ................",
"........................................        ................",
"........................................        ................",
"........................................        ................",
"........................................        ................",
"........................................        ................",
"........................................        ................",
"........................................        ................",
"........................................        ................",
"........................................        ................",
"........................................        ................",
"........................................        ................",
"........................................        ................",
"........................................        ................",
"........................................        ................",
"........................................        ................",
"........................................        ................",
"........................................        ................",
"........................................        ................",
"........................................        ................",
"........................................        ................",
"                                                                ",
"                                                                ",
"                                                                ",
"                                                                ",
"                                                                ",
"                                                                ",
"                                                                ",
"                                                                "
};
