/* XPM */
static char *_19c21cb06664cb18da52732e1332780JETchJdeW5wLHRgJ[] = {
/* columns rows colors chars-per-pixel */
"64 64 2 1 ",
"  c None",
". c white",
/* pixels */
"        ................................................        ",
"        ................................................        ",
"        ................................................        ",
"        ................................................        ",
"        ................................................        ",
"        ................................................        ",
"        ................................................        ",
"        ................................................        ",
"........................                ........................",
"........................                ........................",
"........................                ........................",
"........................                ........................",
"........................                ........................",
"........................                ........................",
"........................                ........................",
"........................                ........................",
"................                                ................",
"................                                ................",
"................                                ................",
"................                                ................",
"................                                ................",
"................                                ................",
"................                                ................",
"................                                ................",
"................                                ................",
"................                                ................",
"................                                ................",
"................                                ................",
"................                                ................",
"................                                ................",
"................                                ................",
"................                                ................",
"........................                ........................",
"........................                ........................",
"........................                ........................",
"........................                ........................",
"........................                ........................",
"........................                ........................",
"........................                ........................",
"........................                ........................",
"................................................................",
"................................................................",
"................................................................",
"................................................................",
"................................................................",
"................................................................",
"................................................................",
"................................................................",
"........................                ........................",
"........................                ........................",
"........................                ........................",
"........................                ........................",
"........................                ........................",
"........................                ........................",
"........................                ........................",
"........................                ........................",
"        ................................................        ",
"        ................................................        ",
"        ................................................        ",
"        ................................................        ",
"        ................................................        ",
"        ................................................        ",
"        ................................................        ",
"        ................................................        "
};
