/* XPM */
static char *_d438cd5adb443f0ad42b539997b9c6ayMt5wl0yqa7lAy0K[] = {
/* columns rows colors chars-per-pixel */
"64 64 2 1 ",
"  c None",
". c white",
/* pixels */
"        ................................................        ",
"        ................................................        ",
"        ................................................        ",
"        ................................................        ",
"        ................................................        ",
"        ................................................        ",
"        ................................................        ",
"        ................................................        ",
"        ........                                ........        ",
"        ........                                ........        ",
"        ........                                ........        ",
"        ........                                ........        ",
"        ........                                ........        ",
"        ........                                ........        ",
"        ........                                ........        ",
"        ........                                ........        ",
"        ................................................        ",
"        ................................................        ",
"        ................................................        ",
"        ................................................        ",
"        ................................................        ",
"        ................................................        ",
"        ................................................        ",
"        ................................................        ",
"        ........                                ........        ",
"        ........                                ........        ",
"        ........                                ........        ",
"        ........                                ........        ",
"        ........                                ........        ",
"        ........                                ........        ",
"        ........                                ........        ",
"        ........                                ........        ",
"        ................................................        ",
"        ................................................        ",
"        ................................................        ",
"        ................................................        ",
"        ................................................        ",
"        ................................................        ",
"        ................................................        ",
"        ................................................        ",
"        ........                                ........        ",
"        ........                                ........        ",
"        ........                                ........        ",
"        ........                                ........        ",
"        ........                                ........        ",
"        ........                                ........        ",
"        ........                                ........        ",
"        ........                                ........        ",
"        ................................................        ",
"        ................................................        ",
"        ................................................        ",
"        ................................................        ",
"        ................................................        ",
"        ................................................        ",
"        ................................................        ",
"        ................................................        ",
"        ........                                ........        ",
"        ........                                ........        ",
"        ........                                ........        ",
"        ........                                ........        ",
"        ........                                ........        ",
"        ........                                ........        ",
"        ........                                ........        ",
"        ........                                ........        "
};
