/* XPM */
static char *_0cdb66bb08a4e2497dc86383a14abe2LZTzy4VpHRdHuBsD[] = {
/* columns rows colors chars-per-pixel */
"128 128 2 1 ",
"  c None",
". c white",
/* pixels */
"                ................................................................................................                ",
"                ................................................................................................                ",
"                ................................................................................................                ",
"                ................................................................................................                ",
"                ................................................................................................                ",
"                ................................................................................................                ",
"                ................................................................................................                ",
"                ................................................................................................                ",
"                ................................................................................................                ",
"                ................................................................................................                ",
"                ................................................................................................                ",
"                ................................................................................................                ",
"                ................................................................................................                ",
"                ................................................................................................                ",
"                ................................................................................................                ",
"                ................................................................................................                ",
"                ................                                                                ................                ",
"                ................                                                                ................                ",
"                ................                                                                ................                ",
"                ................                                                                ................                ",
"                ................                                                                ................                ",
"                ................                                                                ................                ",
"                ................                                                                ................                ",
"                ................                                                                ................                ",
"                ................                                                                ................                ",
"                ................                                                                ................                ",
"                ................                                                                ................                ",
"                ................                                                                ................                ",
"                ................                                                                ................                ",
"                ................                                                                ................                ",
"                ................                                                                ................                ",
"                ................                                                                ................                ",
"                ................................................................................................                ",
"                ................................................................................................                ",
"                ................................................................................................                ",
"                ................................................................................................                ",
"                ................................................................................................                ",
"                ................................................................................................                ",
"                ................................................................................................                ",
"                ................................................................................................                ",
"                ................................................................................................                ",
"                ................................................................................................                ",
"                ................................................................................................                ",
"                ................................................................................................                ",
"                ................................................................................................                ",
"                ................................................................................................                ",
"                ................................................................................................                ",
"                ................................................................................................                ",
"                ................                                                                ................                ",
"                ................                                                                ................                ",
"                ................                                                                ................                ",
"                ................                                                                ................                ",
"                ................                                                                ................                ",
"                ................                                                                ................                ",
"                ................                                                                ................                ",
"                ................                                                                ................                ",
"                ................                                                                ................                ",
"                ................                                                                ................                ",
"                ................                                                                ................                ",
"                ................                                                                ................                ",
"                ................                                                                ................                ",
"                ................                                                                ................                ",
"                ................                                                                ................                ",
"                ................                                                                ................                ",
"                ................................................................................................                ",
"                ................................................................................................                ",
"                ................................................................................................                ",
"                ................................................................................................                ",
"                ................................................................................................                ",
"                ................................................................................................                ",
"                ................................................................................................                ",
"                ................................................................................................                ",
"                ................................................................................................                ",
"                ................................................................................................                ",
"                ................................................................................................                ",
"                ................................................................................................                ",
"                ................................................................................................                ",
"                ................................................................................................                ",
"                ................................................................................................                ",
"                ................................................................................................                ",
"                ................                                                                ................                ",
"                ................                                                                ................                ",
"                ................                                                                ................                ",
"                ................                                                                ................                ",
"                ................                                                                ................                ",
"                ................                                                                ................                ",
"                ................                                                                ................                ",
"                ................                                                                ................                ",
"                ................                                                                ................                ",
"                ................                                                                ................                ",
"                ................                                                                ................                ",
"                ................                                                                ................                ",
"                ................                                                                ................                ",
"                ................                                                                ................                ",
"                ................                                                                ................                ",
"                ................                                                                ................                ",
"                ................................................................................................                ",
"                ................................................................................................                ",
"                ................................................................................................                ",
"                ................................................................................................                ",
"                ................................................................................................                ",
"                ................................................................................................                ",
"                ................................................................................................                ",
"                ................................................................................................                ",
"                ................................................................................................                ",
"                ................................................................................................                ",
"                ................................................................................................                ",
"                ................................................................................................                ",
"                ................................................................................................                ",
"                ................................................................................................                ",
"                ................................................................................................                ",
"                ................................................................................................                ",
"                ................                                                                ................                ",
"                ................                                                                ................                ",
"                ................                                                                ................                ",
"                ................                                                                ................                ",
"                ................                                                                ................                ",
"                ................                                                                ................                ",
"                ................                                                                ................                ",
"                ................                                                                ................                ",
"                ................                                                                ................                ",
"                ................                                                                ................                ",
"                ................                                                                ................                ",
"                ................                                                                ................                ",
"                ................                                                                ................                ",
"                ................                                                                ................                ",
"                ................                                                                ................                ",
"                ................                                                                ................                "
};
