/* XPM */
static char *_eb0fc69b4ec48b98d6f39b74939635dplx1yh0AEU2aPduh[] = {
/* columns rows colors chars-per-pixel */
"64 64 2 1 ",
"  c None",
". c white",
/* pixels */
"                        ................                        ",
"                        ................                        ",
"                        ................                        ",
"                        ................                        ",
"                        ................                        ",
"                        ................                        ",
"                        ................                        ",
"                        ................                        ",
"                        ................                        ",
"                        ................                        ",
"                        ................                        ",
"                        ................                        ",
"                        ................                        ",
"                        ................                        ",
"                        ................                        ",
"                        ................                        ",
"                ................................                ",
"                ................................                ",
"                ................................                ",
"                ................................                ",
"                ................................                ",
"                ................................                ",
"                ................................                ",
"                ................................                ",
"        ........        ................        ........        ",
"        ........        ................        ........        ",
"        ........        ................        ........        ",
"        ........        ................        ........        ",
"        ........        ................        ........        ",
"        ........        ................        ........        ",
"        ........        ................        ........        ",
"        ........        ................        ........        ",
"        ........        ................        ........        ",
"        ........        ................        ........        ",
"        ........        ................        ........        ",
"        ........        ................        ........        ",
"        ........        ................        ........        ",
"        ........        ................        ........        ",
"        ........        ................        ........        ",
"        ........        ................        ........        ",
"                ........                ........                ",
"                ........                ........                ",
"                ........                ........                ",
"                ........                ........                ",
"                ........                ........                ",
"                ........                ........                ",
"                ........                ........                ",
"                ........                ........                ",
"                ........                ........                ",
"                ........                ........                ",
"                ........                ........                ",
"                ........                ........                ",
"                ........                ........                ",
"                ........                ........                ",
"                ........                ........                ",
"                ........                ........                ",
"                ........                ........                ",
"                ........                ........                ",
"                ........                ........                ",
"                ........                ........                ",
"                ........                ........                ",
"                ........                ........                ",
"                ........                ........                ",
"                ........                ........                "
};
