/* XPM */
static char *_d09df7a213245d085b2f1e455f0edd5OlA8RlHXDFJFf43Y[] = {
/* columns rows colors chars-per-pixel */
"64 64 2 1 ",
"  c None",
". c white",
/* pixels */
"                                                                ",
"                                                                ",
"                                                                ",
"                                                                ",
"                                                                ",
"                                                                ",
"                                                                ",
"                                                                ",
"                                                                ",
"                                                                ",
"                                                                ",
"                                                                ",
"                                                                ",
"                                                                ",
"                                                                ",
"                                                                ",
"                                                                ",
"                                                                ",
"                                                                ",
"                                                                ",
"                                                                ",
"                                                                ",
"                                                                ",
"                                                                ",
"........................                                        ",
"........................                                        ",
"........................                                        ",
"........................                                        ",
"........................                                        ",
"........................                                        ",
"........................                                        ",
"........................                                        ",
"........        ........................................        ",
"........        ........................................        ",
"........        ........................................        ",
"........        ........................................        ",
"........        ........................................        ",
"........        ........................................        ",
"........        ........................................        ",
"........        ........................................        ",
"........................                ........                ",
"........................                ........                ",
"........................                ........                ",
"........................                ........                ",
"........................                ........                ",
"........................                ........                ",
"........................                ........                ",
"........................                ........                ",
"                                ........        ........        ",
"                                ........        ........        ",
"                                ........        ........        ",
"                                ........        ........        ",
"                                ........        ........        ",
"                                ........        ........        ",
"                                ........        ........        ",
"                                ........        ........        ",
"                                                                ",
"                                                                ",
"                                                                ",
"                                                                ",
"                                                                ",
"                                                                ",
"                                                                ",
"                                                                "
};
